<svg width="62" height="37" viewBox="0 0 62 37" fill="none" xmlns="http://www.w3.org/2000/svg">
<path d="M27.8 19.95C27.8 20.8167 27.6 21.6667 27.2 22.5C26.8 23.3333 26.3 24.1167 25.7 24.85C25.1 25.5833 24.45 26.2667 23.75 26.9C23.05 27.5 22.4167 28.0167 21.85 28.45C21.25 28.9167 20.55 29.4167 19.75 29.95C18.95 30.4833 18.1667 30.9833 17.4 31.45C16.6667 31.9167 16.0167 32.35 15.45 32.75C14.8833 33.1167 14.5333 33.3667 14.4 33.5L12.95 34.65C12.7833 34.7833 12.5833 34.8667 12.35 34.9C12.15 34.9333 11.9833 34.95 11.85 34.95C11.6167 34.95 11.4333 34.8333 11.3 34.6C11.1667 34.3333 11.1 34.0667 11.1 33.8C11.1 33.6 11.2833 33.25 11.65 32.75C12.05 32.2167 12.5 31.7667 13 31.4C13.5 31.0333 14.1167 30.6667 14.85 30.3C15.5833 29.9333 16.5833 29.35 17.85 28.55C18.4833 28.15 19.25 27.6333 20.15 27C21.05 26.3333 21.9 25.6333 22.7 24.9C23.5 24.1333 24.1833 23.35 24.75 22.55C25.3167 21.7167 25.6 20.9167 25.6 20.15C25.6 19.85 25.2333 19.55 24.5 19.25C23.8 18.9167 22.8 18.75 21.5 18.75C20.1667 18.75 18.7667 18.95 17.3 19.35C15.8333 19.75 14.4667 20.1833 13.2 20.65C11.9667 21.1167 10.9 21.55 10 21.95C9.1 22.35 8.55 22.55 8.35 22.55C8.45 23.3167 8.56667 24.2667 8.7 25.4C8.86667 26.5 9.03333 27.5667 9.2 28.6C9.36667 29.8 9.55 31.05 9.75 32.35H9.95C10.0167 32.6833 10.15 33.1667 10.35 33.8C10.55 34.4333 10.65 34.9333 10.65 35.3C10.65 35.8333 10.45 36.1 10.05 36.1C9.85 36.1 9.61667 35.9167 9.35 35.55C9.11667 35.1833 8.86667 34.75 8.6 34.25C8.36667 33.75 8.15 33.2667 7.95 32.8C7.78333 32.3 7.66667 31.95 7.6 31.75C7.3 30.65 7 29.3833 6.7 27.95C6.43333 26.5167 6.18333 25.0833 5.95 23.65C5.75 22.1833 5.58333 20.8167 5.45 19.55C5.35 18.25 5.3 17.1833 5.3 16.35C5.3 16.1167 5.35 15.9167 5.45 15.75C5.58333 15.5833 5.65 15.4167 5.65 15.25C5.65 15.0833 5.6 14.9667 5.5 14.9C5.43333 14.8 5.4 14.65 5.4 14.45C5.4 14.35 5.41667 14.25 5.45 14.15C5.51667 14.0167 5.66667 13.95 5.9 13.95C6.13333 14.0167 6.35 14.05 6.55 14.05C6.78333 14.05 6.98333 14.1 7.15 14.2C7.31667 14.2667 7.45 14.4 7.55 14.6C7.65 14.8 7.7 15.1167 7.7 15.55V15.85C7.7 15.9167 7.68333 16 7.65 16.1C7.65 16.1667 7.65 16.2333 7.65 16.3C7.65 16.8667 7.66667 17.3167 7.7 17.65C7.73333 17.9833 7.78333 18.15 7.85 18.15C7.95 18.15 8.3 17.9167 8.9 17.45C9.53333 16.95 10.2833 16.3333 11.15 15.6C12.0167 14.8667 12.95 14.05 13.95 13.15C14.9833 12.25 15.9667 11.3833 16.9 10.55C17.2667 10.2167 17.7667 9.75 18.4 9.15C19.0333 8.51667 19.65 7.85 20.25 7.15C20.8833 6.45 21.4167 5.8 21.85 5.2C22.3167 4.56667 22.55 4.08333 22.55 3.75C22.55 3.41666 22.45 3.25 22.25 3.25C21.9833 3.25 21.4167 3.36666 20.55 3.6C19.6833 3.83333 18.7 4.15 17.6 4.55C16.5 4.91666 15.3667 5.35 14.2 5.85C13.0333 6.35 12 6.86667 11.1 7.4C10.1667 8.03333 9.23333 8.73333 8.3 9.5C7.36667 10.2667 6.51667 11 5.75 11.7C5.01667 12.3667 4.4 12.95 3.9 13.45C3.43333 13.9167 3.18333 14.1833 3.15 14.25C3.08333 14.3167 3.05 14.3833 3.05 14.45C3.05 14.5167 3.06667 14.6167 3.1 14.75C3.16667 14.85 3.2 14.9333 3.2 15C3.2 15.1 3.13333 15.1833 3 15.25C2.86667 15.3167 2.71667 15.35 2.55 15.35C2.28333 15.35 1.95 15.3 1.55 15.2C1.15 15.0667 0.95 14.7333 0.95 14.2C0.95 13.7333 1.21667 13.15 1.75 12.45C2.28333 11.75 2.96667 11 3.8 10.2C4.66667 9.4 5.61667 8.61666 6.65 7.85C7.68333 7.05 8.7 6.31667 9.7 5.65C10.7 5.01667 11.7833 4.41667 12.95 3.85C14.15 3.25 15.3167 2.73333 16.45 2.3C17.6167 1.86666 18.7167 1.53333 19.75 1.3C20.7833 1.03333 21.6333 0.899998 22.3 0.899998C22.5667 0.899998 22.8667 0.933332 23.2 1C23.5333 1.06667 23.85 1.16667 24.15 1.3C24.45 1.43333 24.7 1.61667 24.9 1.85C25.1 2.05 25.2 2.3 25.2 2.6C25.2 3.5 24.9333 4.43333 24.4 5.4C23.8667 6.33333 23.1667 7.28333 22.3 8.25C21.4333 9.21666 20.45 10.2 19.35 11.2C18.2833 12.1667 17.2 13.1167 16.1 14.05C15.0333 14.95 14 15.8333 13 16.7C12 17.5333 11.1667 18.3 10.5 19C10.8667 18.8667 11.4667 18.65 12.3 18.35C13.1333 18.0167 14.0333 17.7 15 17.4C16 17.0667 17 16.7833 18 16.55C19 16.3167 19.8833 16.2 20.65 16.2C20.8833 16.2 21.3833 16.2167 22.15 16.25C22.9167 16.2833 23.7167 16.4167 24.55 16.65C25.3833 16.8833 26.1333 17.2667 26.8 17.8C27.4667 18.3 27.8 19.0167 27.8 19.95ZM48.2715 22.1C48.3382 22.5333 48.3715 22.8833 48.3715 23.15C48.4048 23.4167 48.4215 23.6833 48.4215 23.95C48.4215 24.7833 48.3048 25.7667 48.0715 26.9C47.8715 28.0333 47.5048 29.1167 46.9715 30.15C46.4715 31.15 45.7882 32.0167 44.9215 32.75C44.0882 33.45 43.0215 33.8 41.7215 33.8C40.5215 33.8 39.3882 33.4667 38.3215 32.8C37.2548 32.1 36.3048 31.2167 35.4715 30.15C34.6382 29.05 33.9715 27.8333 33.4715 26.5C33.0048 25.1333 32.7715 23.7833 32.7715 22.45C32.7715 20.5167 32.8882 18.8667 33.1215 17.5C33.3882 16.1 33.7548 14.8833 34.2215 13.85C34.2215 13.75 34.1548 13.65 34.0215 13.55C33.9215 13.45 33.8715 13.3167 33.8715 13.15C33.8715 12.9833 34.0215 12.7667 34.3215 12.5C34.6548 12.2333 35.0382 11.9833 35.4715 11.75C35.9382 11.4833 36.3882 11.2667 36.8215 11.1C37.2882 10.9 37.6382 10.8 37.8715 10.8C38.0048 10.8 38.2215 10.8667 38.5215 11C38.8548 11.1333 39.2715 11.2 39.7715 11.2C39.9382 11.2 40.1048 11.1833 40.2715 11.15C40.4382 11.1167 40.6215 11.1 40.8215 11.1C41.5215 11.1 42.2715 11.4333 43.0715 12.1C43.9048 12.7333 44.6715 13.5667 45.3715 14.6C46.1048 15.6333 46.7215 16.8167 47.2215 18.15C47.7548 19.45 48.1048 20.7667 48.2715 22.1ZM46.2715 24.05C46.2715 23.4167 46.1382 22.5167 45.8715 21.35C45.6048 20.15 45.2048 18.9833 44.6715 17.85C44.1382 16.6833 43.4882 15.6667 42.7215 14.8C41.9882 13.9333 41.1548 13.5 40.2215 13.5C40.1548 13.5 40.0215 13.5 39.8215 13.5C39.6548 13.4667 39.4548 13.45 39.2215 13.45C38.9882 13.4167 38.7715 13.4 38.5715 13.4C38.3715 13.3667 38.2548 13.35 38.2215 13.35C37.6882 13.35 37.2215 13.6 36.8215 14.1C36.4548 14.6 36.1382 15.25 35.8715 16.05C35.6382 16.85 35.4548 17.7667 35.3215 18.8C35.1882 19.8333 35.1215 20.8667 35.1215 21.9C35.1215 22.2667 35.2215 22.9833 35.4215 24.05C35.6215 25.0833 35.9715 26.1667 36.4715 27.3C37.0048 28.4 37.7048 29.3833 38.5715 30.25C39.4382 31.1167 40.5382 31.55 41.8715 31.55C42.7715 31.55 43.5048 31.2833 44.0715 30.75C44.6382 30.1833 45.0715 29.5 45.3715 28.7C45.7048 27.9 45.9382 27.0833 46.0715 26.25C46.2048 25.3833 46.2715 24.65 46.2715 24.05ZM61.3875 24.2C61.3875 24.9333 61.2875 25.6333 61.0875 26.3C60.8875 26.9667 60.6208 27.55 60.2875 28.05C59.9542 28.55 59.5542 28.95 59.0875 29.25C58.6542 29.5167 58.1708 29.65 57.6375 29.65C56.7042 29.65 55.9708 29.3833 55.4375 28.85C54.9042 28.3167 54.4875 27.7 54.1875 27C53.9208 26.3 53.7375 25.6 53.6375 24.9C53.5708 24.1667 53.5375 23.6167 53.5375 23.25C53.5375 22.65 53.6208 21.9833 53.7875 21.25C53.9875 20.4833 54.2375 19.7833 54.5375 19.15C54.8708 18.5167 55.2375 17.9833 55.6375 17.55C56.0375 17.1167 56.4542 16.9 56.8875 16.9C56.9875 16.9 57.1375 16.9333 57.3375 17C57.5708 17.0667 57.8042 17.1667 58.0375 17.3C58.2708 17.4333 58.4708 17.6 58.6375 17.8C58.8375 18 58.9708 18.2333 59.0375 18.5C59.4042 18.5333 59.7708 18.6667 60.1375 18.9C60.5042 19.1333 60.7042 19.3167 60.7375 19.45C61.0042 20.3167 61.1708 21.1833 61.2375 22.05C61.3375 22.9167 61.3875 23.6333 61.3875 24.2ZM59.1375 23.3C59.1375 22.8 59.0875 22.2833 58.9875 21.75C58.8875 21.1833 58.6875 20.6167 58.3875 20.05C58.3208 20.0833 58.2375 20.1 58.1375 20.1C58.0042 20.1 57.8875 20.0833 57.7875 20.05C57.7208 20.0167 57.6542 20 57.5875 20C57.1875 20 56.8708 20.1167 56.6375 20.35C56.4042 20.55 56.2208 20.8333 56.0875 21.2C55.9875 21.5333 55.9208 21.9 55.8875 22.3C55.8542 22.7 55.8375 23.0833 55.8375 23.45C55.8375 23.8167 55.8542 24.2333 55.8875 24.7C55.9208 25.1333 55.9875 25.55 56.0875 25.95C56.2208 26.35 56.3875 26.7 56.5875 27C56.7875 27.2667 57.0542 27.4 57.3875 27.4C57.7208 27.4 58.0042 27.2333 58.2375 26.9C58.4708 26.5333 58.6542 26.1167 58.7875 25.65C58.9208 25.1833 59.0042 24.7333 59.0375 24.3C59.1042 23.8333 59.1375 23.5 59.1375 23.3Z" fill="#010101"/>
</svg>
